<svg id="visual" viewBox="0 0 960 540" width="960" height="540" xmlns="http://www.w3.org/2000/svg" xmlns:xlink="http://www.w3.org/1999/xlink" version="1.1"><path d="M0 55L87 55L175 50L262 98L349 82L436 131L524 114L611 131L698 82L785 50L873 66L960 93L960 0L873 0L785 0L698 0L611 0L524 0L436 0L349 0L262 0L175 0L87 0L0 0Z" fill="#511b1b"></path><path d="M0 141L87 249L175 212L262 195L349 222L436 276L524 206L611 249L698 201L785 271L873 217L960 298L960 91L873 64L785 48L698 80L611 129L524 112L436 129L349 80L262 96L175 48L87 53L0 53Z" fill="#b54040"></path><path d="M0 185L87 303L175 298L262 266L349 271L436 368L524 287L611 309L698 276L785 363L873 271L960 352L960 296L873 215L785 269L698 199L611 247L524 204L436 274L349 220L262 193L175 210L87 247L0 139Z" fill="#f65858"></path><path d="M0 428L87 433L175 498L262 465L349 438L436 455L524 465L611 433L698 492L785 444L873 503L960 444L960 350L873 269L785 361L698 274L611 307L524 285L436 366L349 269L262 264L175 296L87 301L0 183Z" fill="#b54040"></path><path d="M0 541L87 541L175 541L262 541L349 541L436 541L524 541L611 541L698 541L785 541L873 541L960 541L960 442L873 501L785 442L698 490L611 431L524 463L436 453L349 436L262 463L175 496L87 431L0 426Z" fill="#511b1b"></path></svg>